<?xml version="1.0" encoding="utf-8"?>
<!-- Generator: Adobe Illustrator 20.0.0, SVG Export Plug-In . SVG Version: 6.00 Build 0)  -->
<svg version="1.1" id="Layer_1" xmlns="http://www.w3.org/2000/svg" xmlns:xlink="http://www.w3.org/1999/xlink" x="0px" y="0px"
	 width="470px" height="285px" viewBox="0 0 470 285" style="enable-background:new 0 0 470 285;" xml:space="preserve">
<style type="text/css">
	.st0{fill:none;stroke:#C2E8F4;stroke-width:2;stroke-linecap:round;stroke-miterlimit:10;stroke-dasharray:4,5;}
	.st1{fill:none;stroke:#C2E8F4;stroke-miterlimit:10;}
	.st2{fill:#C2E8F4;}
	.st3{fill:#FFFFFF;stroke:#FF6002;stroke-width:3;stroke-linecap:round;stroke-linejoin:round;stroke-miterlimit:10;}
	.st4{fill:none;stroke:#FF6002;stroke-width:3;stroke-linecap:round;stroke-linejoin:round;stroke-miterlimit:10;}
	.st5{fill:#FFFFFF;stroke:#333333;stroke-width:3;stroke-linejoin:round;stroke-miterlimit:10;}
	.st6{fill:none;stroke:#C2E8F4;stroke-width:2;stroke-miterlimit:10;}
	.st7{fill:none;stroke:#F16122;stroke-width:2;stroke-linejoin:round;stroke-miterlimit:10;}
</style>
<g>
	<g id="XMLID_602_">
		<line id="XMLID_598_" class="st0" x1="177" y1="218.1" x2="107.5" y2="177.5"/>
		<g id="XMLID_593_">
			<circle id="XMLID_596_" class="st1" cx="76.7" cy="155.8" r="30.8"/>
			<g id="XMLID_595_">
				<path class="st2" d="M76.7,120.1c19.7,0,35.9,16,35.9,35.9s-16,35.9-35.9,35.9s-35.9-16-35.9-35.9S56.8,120.1,76.7,120.1
					 M76.7,115.8c-22.2,0-40.2,18-40.2,40.2s18,40.2,40.2,40.2s40.2-18,40.2-40.2S98.7,115.8,76.7,115.8L76.7,115.8z"/>
			</g>
			<path id="XMLID_594_" class="st3" d="M88.5,143.6H64.7c-3.3,0-6.1,2.7-6.1,6.1v11.2c0,3.3,2.7,6.1,6.1,6.1h13.1l5.8,5.8
				c0.7,0.7,2,0.3,2-0.9v-4.9h2.9c3.3,0,6.1-2.7,6.1-6.1v-11.2C94.5,146.2,91.8,143.6,88.5,143.6z"/>
		</g>
	</g>
	<g id="XMLID_601_">
		<line id="XMLID_597_" class="st0" x1="276" y1="218.1" x2="360.1" y2="177.5"/>
		<g id="XMLID_577_">
			<circle id="XMLID_582_" class="st1" cx="392.3" cy="155.8" r="30.8"/>
			<g id="XMLID_581_">
				<path class="st2" d="M392.3,120.1c19.7,0,35.9,16,35.9,35.9s-16,35.9-35.9,35.9c-19.7,0-35.9-16-35.9-35.9
					S372.5,120.1,392.3,120.1 M392.3,115.8c-22.2,0-40.2,18-40.2,40.2s18,40.2,40.2,40.2c22.2,0,40.2-18,40.2-40.2
					S414.4,115.8,392.3,115.8L392.3,115.8z"/>
			</g>
			<g id="XMLID_578_">
				<circle id="XMLID_580_" class="st3" cx="392.3" cy="145.7" r="10.1"/>
				<path id="XMLID_579_" class="st3" d="M409.2,173.3h-33.7c0-9.4,7.5-16.9,16.9-16.9C401.6,156.3,409.2,163.9,409.2,173.3z"/>
			</g>
		</g>
	</g>
	<g id="XMLID_603_">
		<line id="XMLID_599_" class="st0" x1="235.4" y1="170.8" x2="235.2" y2="111.1"/>
		<g id="XMLID_583_">
			<circle id="XMLID_585_" class="st1" cx="235.2" cy="72.2" r="30.8"/>
			<g id="XMLID_584_">
				<path class="st2" d="M235.2,36.5c19.7,0,35.9,16,35.9,35.9s-16,35.9-35.9,35.9s-35.9-16-35.9-35.9S215.3,36.5,235.2,36.5
					 M235.2,32.1c-22.2,0-40.2,18-40.2,40.2s18,40.2,40.2,40.2s40.2-18,40.2-40.2S257.3,32.1,235.2,32.1L235.2,32.1z"/>
			</g>
		</g>
		<path id="XMLID_576_" class="st3" d="M243,90.2h-18.6c-4,0-7.2-3.2-7.2-7.2V64.4c0-4,3.2-7.2,7.2-7.2H243c4,0,7.2,3.2,7.2,7.2V83
			C250.2,86.9,247,90.2,243,90.2z"/>
		<circle id="XMLID_575_" class="st3" cx="246.3" cy="60.5" r="8.8"/>
		<line id="XMLID_574_" class="st4" x1="246.3" y1="58.2" x2="246.3" y2="62.7"/>
	</g>
	<g id="XMLID_505_">
		<g id="XMLID_586_">
			<g id="XMLID_587_">
				<path id="XMLID_592_" class="st5" d="M333.4,246.7H139.1c-5.3,0-9.7-4.3-9.7-9.7l0,0H343l0,0C343,242.3,338.7,246.7,333.4,246.7
					z"/>
				<path id="XMLID_591_" class="st6" d="M247,241.7h-21.5c-2.6,0-4.8-2.2-4.8-4.8l0,0h31.1l0,0C251.8,239.6,249.6,241.7,247,241.7z
					"/>
				<path id="XMLID_590_" class="st5" d="M309,124.7H163.6c-7.1,0-12.8,5.8-12.8,12.8v99.3h171.1v-99.2
					C321.9,130.5,316.1,124.7,309,124.7z"/>
				<rect id="XMLID_589_" x="158.5" y="139.1" class="st6" width="155.5" height="88.7"/>
				<circle id="XMLID_588_" class="st7" cx="236.2" cy="132.9" r="1.9"/>
			</g>
		</g>
		<line id="XMLID_573_" class="st6" x1="158.5" y1="146.9" x2="313.9" y2="146.9"/>
		<line id="XMLID_572_" class="st6" x1="194.7" y1="146.9" x2="194.7" y2="227.8"/>
		<line id="XMLID_571_" class="st6" x1="158.5" y1="158.1" x2="194.7" y2="158.1"/>
		<line id="XMLID_570_" class="st6" x1="158.5" y1="169.4" x2="194.7" y2="169.4"/>
		<line id="XMLID_569_" class="st6" x1="158.5" y1="180.5" x2="194.7" y2="180.5"/>
		<line id="XMLID_565_" class="st6" x1="158.5" y1="191.7" x2="194.7" y2="191.7"/>
		<line id="XMLID_564_" class="st6" x1="158.5" y1="202.8" x2="194.7" y2="202.8"/>
		<rect id="XMLID_563_" x="199.6" y="152.1" class="st6" width="32.6" height="31.9"/>
		<rect id="XMLID_539_" x="199.6" y="189.7" class="st6" width="109" height="16"/>
		<rect id="XMLID_535_" x="199.6" y="211.8" class="st6" width="109" height="16"/>
		<rect id="XMLID_534_" x="237.8" y="152.1" class="st6" width="32.6" height="31.9"/>
		<rect id="XMLID_524_" x="276" y="152.1" class="st6" width="32.6" height="31.9"/>
	</g>
</g>
</svg>
